<?xml version="1.0" standalone="no"?>
<!DOCTYPE svg PUBLIC "-//W3C//DTD SVG 20010904//EN"
 "http://www.w3.org/TR/2001/REC-SVG-20010904/DTD/svg10.dtd">
<svg version="1.0" xmlns="http://www.w3.org/2000/svg"
 width="730.000000pt" height="730.000000pt" viewBox="0 0 730.000000 730.000000"
 preserveAspectRatio="xMidYMid meet">
<metadata>
Created by potrace 1.14, written by Peter Selinger 2001-2017
</metadata>
<g transform="translate(0.000000,730.000000) scale(0.100000,-0.100000)"
fill="#000000" stroke="none">
<path d="M3150 7059 c-124 -72 -146 -85 -222 -128 -32 -18 -58 -35 -58 -37 0
-6 31 -54 349 -539 25 -38 48 -74 51 -80 3 -5 29 -45 58 -88 28 -43 52 -81 52
-83 0 -3 5 -10 11 -17 5 -7 60 -88 121 -182 316 -486 400 -616 397 -619 -2 -2
-40 5 -84 15 -44 10 -215 47 -380 83 -165 36 -385 84 -490 106 -104 23 -201
44 -215 46 -14 3 -33 7 -42 10 -10 3 -30 7 -45 10 -16 3 -44 9 -63 14 -19 5
-46 11 -60 14 -14 2 -101 21 -195 41 -93 20 -177 38 -185 40 -156 33 -355 77
-359 80 -3 1 -22 6 -41 9 -19 3 -141 28 -270 57 -129 28 -244 53 -255 55 -11
2 -39 8 -62 12 -41 9 -46 7 -230 -99 -103 -59 -189 -111 -190 -116 -2 -4 36
-30 84 -58 48 -27 107 -62 132 -77 26 -15 60 -35 76 -44 17 -9 147 -84 290
-167 143 -82 274 -158 290 -167 17 -10 102 -59 190 -110 88 -51 174 -100 191
-110 16 -10 149 -86 295 -170 145 -84 284 -164 309 -178 25 -13 50 -28 55 -32
6 -4 116 -68 245 -142 129 -75 349 -201 489 -282 140 -81 260 -145 267 -144
27 6 393 224 391 232 -2 4 -23 20 -47 33 -48 27 -522 301 -815 471 -99 57
-198 114 -220 126 -22 13 -110 63 -195 113 -412 238 -617 357 -640 369 -38 21
-21 18 223 -36 124 -27 240 -52 259 -55 18 -3 49 -10 68 -15 19 -5 112 -25
205 -45 94 -20 211 -46 260 -56 50 -11 101 -22 115 -25 14 -2 126 -27 250 -54
231 -50 284 -61 297 -62 5 0 17 -4 29 -8 11 -5 36 -11 55 -14 19 -3 63 -12 99
-20 36 -8 81 -18 100 -21 19 -3 51 -10 70 -15 88 -23 171 -40 191 -40 19 0
231 115 284 154 16 11 -25 76 -424 674 -243 364 -437 662 -432 662 5 0 14 -7
21 -15 7 -8 16 -15 20 -15 4 0 101 -54 215 -121 115 -66 227 -131 249 -143 65
-37 98 -56 331 -191 121 -70 283 -163 360 -208 77 -44 192 -111 255 -147 63
-37 210 -122 327 -189 l212 -121 48 26 c26 15 92 54 146 86 55 32 100 58 102
58 2 0 29 15 59 33 l55 33 -62 36 c-34 20 -84 48 -112 63 -27 15 -62 36 -77
46 -14 11 -28 19 -31 19 -2 0 -64 35 -138 78 -74 43 -154 90 -179 104 -71 40
-304 174 -430 248 -63 37 -133 78 -155 90 -22 12 -139 79 -260 149 -121 70
-353 204 -515 298 -162 94 -313 181 -335 193 -22 12 -80 46 -130 75 -49 29
-107 62 -127 74 -69 38 -102 58 -183 106 -92 54 -182 105 -187 105 -2 0 -50
-28 -108 -61z"/>
<path d="M705 4741 c0 -149 3 -272 5 -274 5 -3 563 -325 650 -374 19 -11 267
-154 550 -318 283 -164 664 -383 845 -488 182 -104 347 -200 367 -213 21 -13
40 -24 44 -24 3 0 19 -9 35 -21 16 -11 30 -17 30 -12 8 48 2 536 -6 543 -5 4
-98 59 -205 120 -107 62 -208 121 -225 130 -243 141 -358 207 -395 228 -25 13
-49 28 -55 32 -5 4 -30 19 -55 32 -25 14 -101 58 -170 98 -167 97 -184 107
-227 131 -21 12 -78 45 -128 74 -97 56 -396 229 -457 264 -21 11 -53 30 -72
40 -18 11 -64 38 -101 60 -37 23 -68 41 -70 41 -2 0 -81 45 -175 100 -95 55
-175 100 -179 100 -4 0 -6 -121 -6 -269z"/>
<path d="M6430 4923 c-122 -72 -536 -311 -643 -372 -18 -10 -86 -50 -152 -88
-66 -38 -226 -131 -355 -205 -129 -75 -249 -144 -267 -154 -18 -11 -99 -57
-180 -104 -81 -47 -168 -97 -193 -112 -25 -15 -56 -33 -70 -41 -100 -55 -487
-281 -495 -288 -6 -6 -10 -113 -10 -279 0 -265 0 -268 20 -258 11 6 76 43 145
83 121 71 413 239 476 275 251 144 330 190 389 225 39 23 77 45 85 48 8 4 31
17 50 28 55 33 342 199 615 356 138 78 257 147 265 152 8 5 121 71 250 146
l235 136 0 269 c0 174 -4 270 -10 269 -5 0 -75 -39 -155 -86z"/>
<path d="M705 3381 c0 -149 3 -272 5 -274 5 -4 68 -40 135 -77 36 -20 449
-258 485 -280 8 -5 85 -49 170 -98 85 -50 209 -121 275 -159 428 -249 576
-333 584 -333 5 0 11 -3 13 -8 3 -6 95 -62 213 -128 23 -12 124 -71 225 -130
102 -59 220 -127 263 -151 43 -24 96 -55 118 -68 21 -14 40 -24 40 -23 1 2 2
124 3 271 l1 269 -26 19 c-15 10 -30 19 -33 19 -3 0 -49 26 -103 58 -190 113
-248 147 -264 154 -9 3 -41 22 -72 42 -31 20 -58 36 -61 36 -4 0 -239 135
-616 355 -69 40 -141 81 -160 92 -19 11 -136 79 -260 150 -124 71 -376 217
-560 323 -184 106 -339 196 -344 201 -29 27 -32 4 -31 -260z"/>
<path d="M6434 3564 c-82 -48 -162 -94 -179 -104 -16 -9 -133 -77 -260 -150
-126 -73 -243 -140 -260 -150 -16 -9 -133 -77 -260 -150 -126 -73 -248 -143
-270 -155 -22 -13 -193 -112 -380 -220 -396 -230 -396 -230 -455 -263 -112
-63 -286 -165 -295 -173 -6 -6 -10 -113 -10 -279 0 -265 0 -268 20 -258 26 14
847 487 950 548 44 26 267 154 495 285 228 131 431 248 450 260 30 19 159 94
290 167 19 11 100 58 180 105 l145 84 0 269 c0 149 -2 270 -5 270 -4 0 -73
-39 -156 -86z"/>
<path d="M708 2176 c-3 -6 -4 -128 -4 -271 l1 -260 340 -198 c187 -109 347
-201 355 -204 8 -4 62 -34 120 -68 58 -34 168 -98 245 -142 263 -152 830 -479
1060 -613 127 -73 250 -144 275 -158 25 -14 62 -36 83 -49 22 -14 42 -22 45
-18 4 4 7 126 7 271 l0 265 -330 191 c-181 105 -350 202 -375 216 -25 14 -112
64 -195 112 -157 91 -398 231 -450 260 -16 9 -115 66 -220 127 -104 61 -280
162 -390 225 -110 64 -282 163 -382 221 -104 60 -183 100 -185 93z"/>
<path d="M6481 2125 c-63 -36 -116 -65 -119 -65 -3 0 -13 -6 -21 -14 -9 -7
-38 -26 -66 -41 -51 -28 -329 -188 -770 -443 -137 -80 -263 -153 -280 -162
-16 -9 -73 -42 -125 -72 -52 -30 -257 -148 -455 -262 -198 -114 -367 -211
-375 -216 -8 -5 -58 -34 -110 -64 l-95 -56 0 -270 c0 -230 2 -269 14 -265 8 3
150 84 315 179 166 95 317 182 336 193 19 11 60 35 90 53 30 18 80 46 110 63
30 16 62 36 71 43 8 8 18 14 22 14 3 0 129 71 279 158 150 87 395 228 543 314
149 86 284 164 302 174 18 11 112 65 210 121 98 56 191 111 208 121 l30 19 0
271 c0 150 0 272 0 272 -1 0 -52 -29 -114 -65z"/>
</g>
</svg>
